{"accessors":[{"bufferView":0,"byteOffset":0,"componentType":5126,"count":298,"max":[60.94269943237305,42.03748321533203,-24.355030059814453],"min":[-42.038665771484375,-61.36210632324219,-121.98381042480469],"type":"VEC3"},{"bufferView":1,"byteOffset":0,"componentType":5121,"count":592,"normalized":true,"type":"VEC4"},{"bufferView":2,"byteOffset":0,"componentType":5125,"count":1776,"type":"SCALAR"}],"asset":{"generator":"VTK","version":"2.0"},"bufferViews":[{"buffer":0,"byteLength":3576,"byteOffset":0,"target":34962},{"buffer":1,"byteLength":2368,"byteOffset":0,"target":34962},{"buffer":2,"byteLength":7104,"byteOffset":0,"target":34963}],"buffers":[{"byteLength":3576,"uri":"buffer17126413.bin"},{"byteLength":2368,"uri":"buffer17907915.bin"},{"byteLength":7104,"uri":"buffer17907916.bin"}],"cameras":[{"perspective":{"aspectRatio":1.8889845094664373,"yfov":0.5235987755982988,"zfar":458.75570994932485,"znear":139.11405329752745},"type":"perspective"}],"materials":[{"pbrMetallicRoughness":{"baseColorFactor":[1.0,1.0,1.0,1.0],"metallicFactor":0.0,"roughnessFactor":1.0}}],"meshes":[{"name":"mesh0","primitives":[{"attributes":{"COLOR_0":1,"POSITION":0},"indices":2,"material":0,"mode":4}]}],"nodes":[{"mesh":0,"name":"mesh0"},{"camera":0,"matrix":[-0.9614140502859152,-0.14221319204637525,0.23549613992762697,-0.0,0.1956075388191515,-0.9552999131347931,0.22167491225163677,0.0,0.19344434514853576,0.2591861955672746,0.9462567312085113,-0.0,63.6792225500556,62.99395108281507,192.08960496936248,1.0],"name":"Camera Node"},{"children":[0,1],"name":"Renderer Node"}],"scene":0,"scenes":[{"name":"Layer 0","nodes":[2]}]}