{
  "accessors": [
    {
      "bufferView": 0,
      "byteOffset": 0,
      "componentType": 5126,
      "count": 298,
      "max": [60.94269943237305, 42.03748321533203, -24.355030059814453],
      "min": [-42.038665771484375, -61.36210632324219, -121.98381042480469],
      "type": "VEC3"
    },
    {
      "bufferView": 1,
      "byteOffset": 0,
      "componentType": 5121,
      "count": 592,
      "normalized": true,
      "type": "VEC4"
    },
    {
      "bufferView": 2,
      "byteOffset": 0,
      "componentType": 5125,
      "count": 1776,
      "type": "SCALAR"
    }
  ],
  "asset": { "generator": "VTK", "version": "2.0" },
  "bufferViews": [
    { "buffer": 0, "byteLength": 3576, "byteOffset": 0, "target": 34962 },
    { "buffer": 1, "byteLength": 2368, "byteOffset": 0, "target": 34962 },
    { "buffer": 2, "byteLength": 7104, "byteOffset": 0, "target": 34963 }
  ],
  "buffers": [
    { "byteLength": 3576, "uri": "buffer7336008.bin" },
    { "byteLength": 2368, "uri": "buffer8741797.bin" },
    { "byteLength": 7104, "uri": "buffer8741798.bin" }
  ],
  "cameras": [
    {
      "perspective": {
        "aspectRatio": 1.8889845094664373,
        "yfov": 0.5235987755982988,
        "zfar": 519.6111958857657,
        "znear": 196.51626563741448
      },
      "type": "perspective"
    }
  ],
  "materials": [
    {
      "pbrMetallicRoughness": {
        "baseColorFactor": [1.0, 1.0, 1.0, 1.0],
        "metallicFactor": 0.0,
        "roughnessFactor": 1.0
      }
    }
  ],
  "meshes": [
    {
      "name": "mesh0",
      "primitives": [
        {
          "attributes": { "COLOR_0": 1, "POSITION": 0 },
          "indices": 2,
          "material": 0,
          "mode": 4
        }
      ]
    }
  ],
  "nodes": [
    { "mesh": 0, "name": "mesh0" },
    {
      "camera": 0,
      "matrix": [
        0.8014418808080609, -0.5076816569401792, 0.3161490896607354, -0.0,
        0.5572502268990722, 0.8258269597952912, -0.08649865372477532, 0.0,
        -0.21717066171048538, 0.2454977956759291, 0.9447580304027532, -0.0,
        -64.21069659316422, 73.60876026840629, 247.28565181980568, 1.0
      ],
      "name": "Camera Node"
    },
    { "children": [0, 1], "name": "Renderer Node" }
  ],
  "scene": 0,
  "scenes": [{ "name": "Layer 0", "nodes": [2] }]
}
